<svg width="52" height="52" viewBox="0 0 52 52" fill="none" xmlns="http://www.w3.org/2000/svg">
<path d="M26.2825 0.0020752V51.9979C40.5118 51.8472 52 40.2649 52 26C52 11.735 40.5118 0.152739 26.2825 0.0020752V0.0020752Z" fill="#FFBB54"/>
<path d="M26.2825 0.00209256C26.1883 0.00104628 26.0942 0 26 0C11.6409 0 0 11.6409 0 26C0 40.3591 11.6409 52 26 52C26.0942 52 26.1883 51.999 26.2825 51.9979C38.1996 51.8179 47.8149 40.2472 47.8149 26C47.8149 11.7528 38.1996 0.182052 26.2825 0.00209256V0.00209256Z" fill="#FFD45A"/>
<path d="M36.3058 22.8821L26.1328 35.8821H36.5841C38.3764 33.5981 39.4446 30.7187 39.4446 27.5903V26.0209C39.4446 24.2946 38.0321 22.8821 36.3058 22.8821V22.8821Z" fill="#B74147"/>
<path d="M15.6943 22.8821C13.9679 22.8821 12.5554 24.2946 12.5554 26.0209V27.5903C12.5554 30.7187 13.6237 33.5981 15.4159 35.8821L34.9866 34.1746C35.8267 32.2285 36.3059 29.9821 36.3059 27.5903V26.0212L15.6943 22.8821Z" fill="#FF3C1F"/>
<path d="M34.9864 34.1746L26.1328 41.034C30.3755 40.9932 34.1473 38.9874 36.5841 35.8821C36.1017 35.2679 35.5671 34.6956 34.9864 34.1746Z" fill="#FA4087"/>
<path d="M34.9864 34.1745C33.2412 38.2226 29.935 40.9711 26.1328 41.0339C26.0889 41.035 26.0439 41.035 25.9999 41.035C21.7029 41.035 17.8777 39.0198 15.4158 35.882C17.8777 32.7453 21.7029 30.7291 25.9999 30.7291C29.4547 30.7291 32.6051 32.0328 34.9864 34.1745Z" fill="#FA71A3"/>
<path d="M33.1671 22.8821L31.5977 27.5903H34.7365C35.5997 27.5903 36.3059 26.8841 36.3059 26.0209V22.8821H33.1671Z" fill="#FFF7DF"/>
<path d="M33.1669 22.8821V26.0209C33.1669 26.8841 32.4607 27.5903 31.5975 27.5903H17.2635C16.4003 27.5903 15.6941 26.8841 15.6941 26.0209V22.8821H33.1669Z" fill="white"/>
<path d="M26.7848 44.9589H25.2154C24.7819 44.9589 24.4307 44.6076 24.4307 44.1742C24.4307 43.7409 24.7819 43.3895 25.2154 43.3895H26.7848C27.2183 43.3895 27.5695 43.7409 27.5695 44.1742C27.5695 44.6076 27.2183 44.9589 26.7848 44.9589Z" fill="#FFBB54"/>
<path d="M34.7364 11.8961C33.8732 11.8961 33.167 12.6024 33.167 13.4655V18.1738C33.167 19.037 33.8732 19.7432 34.7364 19.7432C35.5996 19.7432 36.3058 19.037 36.3058 18.1738V13.4655C36.3058 12.6024 35.5996 11.8961 34.7364 11.8961V11.8961Z" fill="#474867"/>
<path d="M17.2635 11.8971C16.4003 11.8971 15.6941 12.6033 15.6941 13.4665V18.1748C15.6941 19.0379 16.4003 19.7442 17.2635 19.7442C18.1267 19.7442 18.8329 19.0379 18.8329 18.1748V13.4665C18.8329 12.6033 18.1267 11.8971 17.2635 11.8971Z" fill="#474867"/>
</svg>
